# xmcd CD database file
#
# Track frame offsets:
#	300
#	13255
#	27957
#	42292
#	56700
#	70761
#	83871
#	98866
#	112392
#	123455
#	137323
#	149900
#	162117
#	174074
#	186895
#	199317
#	213973
#	227331
#	240734
#	254301
#	268634
#	281847
#	296074
#	308829
#	322585
#
# Disc length: 4463 seconds
#
# Revision: 1
# Processed by: cddbd v1.5.1PL2 Copyright (c) Steve Scherf et al.
# Submitted via: CDex 1.51
#
DISCID=72116b19
DTITLE=M.Davis, G.Miller, T.Monk, C.Basie - Le Meilleur du Jazz  -  disk 4
DYEAR=1900
DGENRE=Jazz
TTITLE0=Solo hop
TTITLE1=Solitude
TTITLE2=Topsy
TTITLE3=Godchild
TTITLE4=Mood Indigo
TTITLE5=Honeysuckle Rose
TTITLE6=Stomp it off
TTITLE7=The Sheik of Araby
TTITLE8=On a holyday
TTITLE9=Down South Camp meeting
TTITLE10=Swinging at Maida vale
TTITLE11=Sing, sing, sing
TTITLE12=Pianology
TTITLE13=Liza
TTITLE14=Well, all right then
TTITLE15=Early Autumn
TTITLE16=Front and center
TTITLE17=The Grabtown Grapple
TTITLE18=The Chase
TTITLE19=King Porter Stomp
TTITLE20=Ow!
TTITLE21=Epistrophy
TTITLE22=Sugar Foot Stomp
TTITLE23=Down in honky-tonk
TTITLE24=Les Oignons
EXTD=
EXTT0=
EXTT1=
EXTT2=
EXTT3=
EXTT4=
EXTT5=
EXTT6=
EXTT7=
EXTT8=
EXTT9=
EXTT10=
EXTT11=
EXTT12=
EXTT13=
EXTT14=
EXTT15=
EXTT16=
EXTT17=
EXTT18=
EXTT19=
EXTT20=
EXTT21=
EXTT22=
EXTT23=
EXTT24=
PLAYORDER=
